<svg width="71" height="71" viewBox="0 0 71 71" fill="none" xmlns="http://www.w3.org/2000/svg">
<rect x="0.501465" y="0.449219" width="69.9984" height="70.4574" rx="6" fill="#58A5F0"/>
<path d="M20.1677 58.534C18.028 58.534 16.1732 58.0614 14.6032 57.1162C13.0332 56.1571 11.8105 54.8366 10.9352 53.1547C10.0738 51.4727 9.64307 49.5476 9.64307 47.3791V46.5034C9.64307 44.3072 10.0668 42.3542 10.9144 40.6445C11.7758 38.9208 12.9498 37.5725 14.4364 36.5995C15.937 35.6126 17.6529 35.1191 19.5841 35.1191C22.6269 35.1191 24.9402 36.0227 26.5241 37.8297C28.1219 39.6367 28.9208 42.1179 28.9208 45.2732V48.2757H15.0825L15.0408 48.3799C15.1242 50.1592 15.6383 51.6256 16.583 52.7794C17.5278 53.9192 18.8755 54.4891 20.6262 54.4891C21.8488 54.4891 22.9603 54.3223 23.9607 53.9887C24.961 53.6551 25.8919 53.1825 26.7534 52.5709L28.3789 55.8652C27.4897 56.6297 26.3574 57.2691 24.9819 57.7834C23.6203 58.2838 22.0155 58.534 20.1677 58.534ZM15.1659 44.5852H23.8982V44.0431C23.8982 42.5697 23.5508 41.3742 22.8561 40.4568C22.1753 39.5394 21.1055 39.0807 19.6466 39.0807C18.3684 39.0807 17.3333 39.595 16.5414 40.6236C15.7633 41.6522 15.284 42.938 15.1034 44.4809L15.1659 44.5852Z" fill="#EDF0F2"/>
<path d="M34.2952 58.534C32.1278 58.534 30.266 58.0475 28.7099 57.0745C27.1538 56.0876 25.9589 54.7323 25.1253 53.0087C24.2916 51.2851 23.8748 49.2974 23.8748 47.0455V46.6077C23.8748 44.3697 24.2916 42.389 25.1253 40.6653C25.9589 38.9417 27.1538 37.5864 28.7099 36.5995C30.266 35.6126 32.1139 35.1191 34.2535 35.1191C36.421 35.1191 38.2828 35.6126 39.8389 36.5995C41.395 37.5725 42.5898 38.9278 43.4235 40.6653C44.2571 42.389 44.6739 44.3697 44.6739 46.6077V47.0455C44.6739 49.3113 44.2571 51.3059 43.4235 53.0296C42.5898 54.7532 41.395 56.1015 39.8389 57.0745C38.2966 58.0475 36.4488 58.534 34.2952 58.534ZM34.2952 54.4891C36.0319 54.4891 37.3241 53.801 38.1716 52.4249C39.0191 51.0349 39.4429 49.2418 39.4429 47.0455V46.6077C39.4429 44.4531 39.0122 42.6809 38.1508 41.2908C37.3032 39.8869 36.0042 39.185 34.2535 39.185C32.5168 39.185 31.2247 39.8869 30.3771 41.2908C29.5435 42.6809 29.1267 44.4531 29.1267 46.6077V47.0455C29.1267 49.2418 29.5435 51.0349 30.3771 52.4249C31.2247 53.801 32.5307 54.4891 34.2952 54.4891Z" fill="#EDF0F2"/>
<path d="M43.8236 61.9743V58.0962H62.7887V61.9743H43.8236Z" fill="#EDF0F2"/>
</svg>
